<?xml version="1.0" standalone="no"?>
<!DOCTYPE svg PUBLIC "-//W3C//DTD SVG 20010904//EN"
 "http://www.w3.org/TR/2001/REC-SVG-20010904/DTD/svg10.dtd">
<svg version="1.0" xmlns="http://www.w3.org/2000/svg"
 width="200.000000pt" height="200.000000pt" viewBox="0 0 200.000000 200.000000"
 preserveAspectRatio="xMidYMid meet">
<metadata>
Created by potrace 1.16, written by Peter Selinger 2001-2019
</metadata>
<g transform="translate(0.000000,200.000000) scale(0.100000,-0.100000)"
fill="#000000" stroke="none">
<path d="M720 945 c0 -51 -3 -65 -15 -65 -9 0 -15 9 -15 25 0 21 -5 25 -30 25
-29 0 -30 -2 -30 -43 0 -55 13 -67 75 -67 75 0 79 6 84 105 l3 85 -36 0 -36 0
0 -65z"/>
<path d="M822 998 c-16 -16 -16 -150 0 -166 7 -7 37 -12 68 -12 31 0 61 5 68
12 7 7 12 41 12 83 0 42 -5 76 -12 83 -7 7 -37 12 -68 12 -31 0 -61 -5 -68
-12z"/>
<path d="M1000 927 c0 -51 5 -88 12 -95 7 -7 37 -12 68 -12 31 0 61 5 68 12 7
7 12 44 12 96 l0 83 -32 -3 c-33 -3 -33 -3 -36 -65 -2 -47 -7 -63 -17 -63 -12
0 -15 15 -15 65 l0 65 -30 0 -30 0 0 -83z"/>
<path d="M1190 915 l0 -95 30 0 c27 0 30 3 30 30 0 23 4 30 20 30 16 0 20 -7
20 -30 0 -27 3 -30 30 -30 29 0 30 1 30 50 0 28 -4 50 -8 50 -5 0 -7 14 -4 30
7 47 -11 60 -84 60 l-64 0 0 -95z"/>
<path d="M1370 915 l0 -95 35 0 c34 0 35 1 35 36 0 31 2 35 15 24 8 -7 15 -23
15 -36 0 -21 5 -24 35 -24 l35 0 0 95 0 95 -35 0 c-29 0 -35 -4 -35 -22 l0
-21 -23 21 c-13 12 -35 22 -50 22 l-27 0 0 -95z"/>
<path d="M1577 963 c-9 -27 -17 -69 -17 -95 0 -47 1 -48 30 -48 23 0 30 4 30
20 0 13 7 20 20 20 13 0 20 -7 20 -20 0 -16 7 -20 36 -20 l36 0 -4 58 c-3 31
-12 74 -21 95 -15 35 -18 37 -65 37 l-48 0 -17 -47z"/>
<path d="M1750 915 l0 -95 75 0 75 0 0 56 c0 54 0 55 -27 52 -20 -2 -29 -9
-31 -25 -7 -49 -22 -20 -22 42 l0 65 -35 0 -35 0 0 -95z"/>
</g>
</svg>
